<mxfile host="app.diagrams.net" agent="Mozilla/5.0 (Windows NT 10.0; Win64; x64) AppleWebKit/537.36 (KHTML, like Gecko) Chrome/139.0.0.0 Safari/537.36" version="28.2.1">
  <diagram id="zRBOqTjvxqP6SA9_rqPW" name="ページ1">
    <mxGraphModel dx="1111" dy="465" grid="1" gridSize="10" guides="1" tooltips="1" connect="1" arrows="1" fold="1" page="1" pageScale="1" pageWidth="827" pageHeight="1169" math="0" shadow="0">
      <root>
        <mxCell id="0" />
        <mxCell id="1" parent="0" />
        <mxCell id="P2m_1xU1ce-m0GtHcq_m-2" value="robodog" style="rounded=0;whiteSpace=wrap;html=1;" vertex="1" parent="1">
          <mxGeometry x="340" y="60" width="120" height="60" as="geometry" />
        </mxCell>
        <mxCell id="P2m_1xU1ce-m0GtHcq_m-4" value="名前" style="rounded=0;whiteSpace=wrap;html=1;" vertex="1" parent="1">
          <mxGeometry x="70" y="180" width="120" height="60" as="geometry" />
        </mxCell>
        <mxCell id="P2m_1xU1ce-m0GtHcq_m-5" value="" style="endArrow=diamondThin;endFill=0;endSize=24;html=1;rounded=0;exitX=0.583;exitY=-0.05;exitDx=0;exitDy=0;exitPerimeter=0;entryX=0.083;entryY=1.033;entryDx=0;entryDy=0;entryPerimeter=0;" edge="1" parent="1" source="P2m_1xU1ce-m0GtHcq_m-4" target="P2m_1xU1ce-m0GtHcq_m-2">
          <mxGeometry width="160" relative="1" as="geometry">
            <mxPoint x="330" y="170" as="sourcePoint" />
            <mxPoint x="490" y="170" as="targetPoint" />
          </mxGeometry>
        </mxCell>
        <mxCell id="P2m_1xU1ce-m0GtHcq_m-8" value="時刻" style="rounded=0;whiteSpace=wrap;html=1;" vertex="1" parent="1">
          <mxGeometry x="210" y="180" width="120" height="60" as="geometry" />
        </mxCell>
        <mxCell id="P2m_1xU1ce-m0GtHcq_m-9" value="" style="endArrow=diamondThin;endFill=0;endSize=24;html=1;rounded=0;exitX=0.583;exitY=-0.05;exitDx=0;exitDy=0;exitPerimeter=0;entryX=0.35;entryY=1.017;entryDx=0;entryDy=0;entryPerimeter=0;" edge="1" parent="1" source="P2m_1xU1ce-m0GtHcq_m-8" target="P2m_1xU1ce-m0GtHcq_m-2">
          <mxGeometry width="160" relative="1" as="geometry">
            <mxPoint x="510" y="175" as="sourcePoint" />
            <mxPoint x="370" y="130" as="targetPoint" />
          </mxGeometry>
        </mxCell>
        <mxCell id="P2m_1xU1ce-m0GtHcq_m-10" value="挨拶" style="rounded=0;whiteSpace=wrap;html=1;" vertex="1" parent="1">
          <mxGeometry x="340" y="180" width="120" height="60" as="geometry" />
        </mxCell>
        <mxCell id="P2m_1xU1ce-m0GtHcq_m-11" value="" style="endArrow=diamondThin;endFill=0;endSize=24;html=1;rounded=0;exitX=0.583;exitY=-0.05;exitDx=0;exitDy=0;exitPerimeter=0;entryX=0.5;entryY=1;entryDx=0;entryDy=0;" edge="1" parent="1" source="P2m_1xU1ce-m0GtHcq_m-10" target="P2m_1xU1ce-m0GtHcq_m-2">
          <mxGeometry width="160" relative="1" as="geometry">
            <mxPoint x="680" y="265" as="sourcePoint" />
            <mxPoint x="540" y="100" as="targetPoint" />
          </mxGeometry>
        </mxCell>
        <mxCell id="P2m_1xU1ce-m0GtHcq_m-12" value="２つの整数" style="rounded=0;whiteSpace=wrap;html=1;" vertex="1" parent="1">
          <mxGeometry x="470" y="180" width="120" height="60" as="geometry" />
        </mxCell>
        <mxCell id="P2m_1xU1ce-m0GtHcq_m-13" value="" style="endArrow=diamondThin;endFill=0;endSize=24;html=1;rounded=0;exitX=0.583;exitY=-0.05;exitDx=0;exitDy=0;exitPerimeter=0;entryX=0.658;entryY=1.05;entryDx=0;entryDy=0;entryPerimeter=0;" edge="1" parent="1" source="P2m_1xU1ce-m0GtHcq_m-12" target="P2m_1xU1ce-m0GtHcq_m-2">
          <mxGeometry width="160" relative="1" as="geometry">
            <mxPoint x="780" y="265" as="sourcePoint" />
            <mxPoint x="450" y="130" as="targetPoint" />
          </mxGeometry>
        </mxCell>
        <mxCell id="P2m_1xU1ce-m0GtHcq_m-14" value="足し算結果" style="rounded=0;whiteSpace=wrap;html=1;" vertex="1" parent="1">
          <mxGeometry x="600" y="180" width="120" height="60" as="geometry" />
        </mxCell>
        <mxCell id="P2m_1xU1ce-m0GtHcq_m-15" value="" style="endArrow=diamondThin;endFill=0;endSize=24;html=1;rounded=0;exitX=0.583;exitY=-0.05;exitDx=0;exitDy=0;exitPerimeter=0;entryX=0.917;entryY=1.033;entryDx=0;entryDy=0;entryPerimeter=0;" edge="1" parent="1" source="P2m_1xU1ce-m0GtHcq_m-14" target="P2m_1xU1ce-m0GtHcq_m-2">
          <mxGeometry width="160" relative="1" as="geometry">
            <mxPoint x="870" y="295" as="sourcePoint" />
            <mxPoint x="760" y="140" as="targetPoint" />
          </mxGeometry>
        </mxCell>
        <mxCell id="P2m_1xU1ce-m0GtHcq_m-16" value="ドメインモデル＝名詞リストを、" style="text;html=1;align=center;verticalAlign=middle;resizable=0;points=[];autosize=1;strokeColor=none;fillColor=none;" vertex="1" parent="1">
          <mxGeometry x="70" y="20" width="200" height="30" as="geometry" />
        </mxCell>
      </root>
    </mxGraphModel>
  </diagram>
</mxfile>
